<?xml version="1.0" standalone="no"?>
<!DOCTYPE svg PUBLIC "-//W3C//DTD SVG 20010904//EN"
 "http://www.w3.org/TR/2001/REC-SVG-20010904/DTD/svg10.dtd">
<svg version="1.0" xmlns="http://www.w3.org/2000/svg"
 width="700.000000pt" height="700.000000pt" viewBox="0 0 700.000000 700.000000"
 preserveAspectRatio="xMidYMid meet">
<metadata>
Created by potrace 1.11, written by Peter Selinger 2001-2013
</metadata>
<g transform="translate(0.000000,700.000000) scale(0.100000,-0.100000)"
fill="#000000" stroke="none">
<path d="M971 5570 c-156 -52 -206 -249 -96 -377 44 -52 112 -80 195 -82 l35
-1 3 -366 3 -365 -47 -87 c-26 -48 -56 -103 -67 -122 -11 -19 -50 -89 -87
-155 -37 -66 -81 -145 -97 -175 -104 -188 -637 -1146 -667 -1200 -59 -105
-104 -203 -122 -271 -23 -84 -27 -260 -8 -342 69 -297 286 -523 572 -594 61
-15 183 -17 1318 -18 706 -1 1281 2 1320 7 322 43 591 313 643 646 25 157 -3
322 -79 467 -41 78 -102 189 -110 200 -4 6 -21 35 -37 65 -17 30 -54 98 -83
150 -29 52 -65 118 -80 145 -15 28 -94 169 -175 315 -81 146 -163 294 -183
330 -20 36 -57 103 -84 149 -26 46 -48 85 -48 87 0 2 -50 92 -111 200 l-110
196 3 369 3 369 35 1 c153 3 254 100 252 243 -2 102 -55 180 -148 215 -46 18
-98 19 -970 19 -853 0 -925 -1 -973 -18z m1322 -459 c4 -1 6 -186 4 -411 -3
-357 -2 -417 12 -458 9 -26 99 -195 200 -377 101 -181 199 -359 218 -394 l35
-63 -79 6 c-97 8 -182 17 -202 21 -9 1 -41 6 -71 11 -30 4 -57 8 -60 9 -3 1
-27 5 -55 9 -27 5 -93 20 -145 33 -233 61 -387 95 -500 109 -55 7 -127 16
-150 19 -34 5 -189 18 -222 19 -16 1 -28 2 -28 3 0 3 183 333 231 418 16 28
46 84 66 125 l38 75 -3 425 -3 425 353 -2 c194 -1 357 -2 361 -2z m-1162
-1922 c92 -2 143 -6 294 -23 134 -15 289 -46 465 -93 173 -45 412 -101 470
-109 25 -3 54 -8 65 -10 43 -8 82 -14 140 -20 33 -3 74 -8 90 -10 37 -4 226
-15 319 -17 78 -3 62 13 141 -132 21 -38 43 -79 50 -90 7 -11 27 -47 45 -80
18 -33 43 -78 55 -100 12 -22 41 -76 65 -120 24 -44 46 -84 50 -90 10 -12 27
-106 25 -131 -7 -79 -39 -145 -92 -194 -46 -42 -86 -65 -133 -75 -19 -4 -585
-8 -1258 -7 l-1223 0 -64 31 c-100 49 -155 133 -160 241 -3 75 18 128 119 308
47 85 86 156 86 158 0 2 10 21 23 42 13 20 41 69 62 107 123 226 229 411 238
417 6 4 14 5 17 3 3 -2 53 -5 111 -6z"/>
<path d="M3981 5579 c-45 -9 -81 -36 -96 -72 -12 -27 -14 -227 -14 -1170 -1
-1120 -1 -1139 19 -1178 36 -70 5 -67 807 -68 395 0 737 0 760 -1 40 0 42 -2
74 -57 37 -67 61 -109 89 -158 11 -19 30 -52 41 -72 12 -21 76 -132 142 -248
66 -115 131 -230 145 -255 21 -39 55 -98 203 -356 13 -23 66 -115 117 -206 51
-90 114 -190 139 -222 70 -88 91 -94 303 -96 97 0 188 4 202 9 35 13 76 56 84
87 4 15 2 41 -3 59 -6 18 -85 161 -177 318 -91 157 -166 290 -166 296 0 5 -3
11 -8 13 -4 2 -41 62 -82 133 -41 72 -168 291 -282 488 -114 196 -208 359
-208 361 0 3 30 14 68 26 96 31 253 113 336 174 196 145 343 361 400 587 55
221 55 530 -1 739 -88 333 -273 553 -593 708 -142 69 -309 120 -446 137 -27 4
-56 8 -64 10 -66 17 -1711 30 -1789 14z m1639 -503 c262 -34 404 -97 531 -232
68 -73 128 -186 143 -268 3 -15 7 -34 10 -44 9 -29 16 -111 17 -191 2 -250
-80 -445 -244 -579 -96 -78 -286 -140 -479 -157 -91 -8 -1123 -9 -1135 -2 -6
4 -10 1481 -4 1482 25 5 1123 -4 1161 -9z"/>
</g>
</svg>
